<?xml version="1.0" encoding="UTF-8" standalone="no"?>
<svg
   width="128"
   height="128"
   version="1.1"
   id="svg6"
   sodipodi:docname="bug_normal.svg"
   inkscape:version="1.3 (0e150ed6c4, 2023-07-21)"
   xmlns:inkscape="http://www.inkscape.org/namespaces/inkscape"
   xmlns:sodipodi="http://sodipodi.sourceforge.net/DTD/sodipodi-0.dtd"
   xmlns="http://www.w3.org/2000/svg"
   xmlns:svg="http://www.w3.org/2000/svg">
  <defs
     id="defs6" />
  <sodipodi:namedview
     id="namedview6"
     pagecolor="#ffffff"
     bordercolor="#000000"
     borderopacity="0.25"
     inkscape:showpageshadow="2"
     inkscape:pageopacity="0.0"
     inkscape:pagecheckerboard="0"
     inkscape:deskcolor="#d1d1d1"
     inkscape:zoom="5.890625"
     inkscape:cx="63.830239"
     inkscape:cy="64"
     inkscape:window-width="1728"
     inkscape:window-height="992"
     inkscape:window-x="-8"
     inkscape:window-y="-8"
     inkscape:window-maximized="1"
     inkscape:current-layer="svg6"
     showgrid="true">
    <inkscape:grid
       id="grid6"
       units="px"
       originx="0"
       originy="0"
       spacingx="1"
       spacingy="1"
       empcolor="#0099e5"
       empopacity="0.30196078"
       color="#0099e5"
       opacity="0.14901961"
       empspacing="5"
       dotted="false"
       gridanglex="30"
       gridanglez="30"
       visible="true" />
  </sodipodi:namedview>
  <path
     style="fill:#3ccf2f;fill-opacity:1;stroke:#213225;stroke-opacity:1"
     d="M 29.029178,61.793104 C 41.597286,47.351985 68.61007,31.335864 84.541114,26.482758 c 15.931046,-4.853105 20.870306,1.35964 25.124666,7.639258 4.25436,6.279618 3.96223,16.72661 -8.65782,30.557029 C 88.387905,78.509463 59.670317,96.833936 43.798408,103.04509 27.9265,109.25625 19.006637,109.68678 13.580902,101.17772 5.9990703,89.287295 16.46107,76.234222 29.029178,61.793104 Z"
     id="path6"
     sodipodi:nodetypes="zzzzzaz" />
  <ellipse
     style="fill:#6c2fcf;stroke:#213225"
     id="path1"
     cx="88.070732"
     cy="-6.2976041"
     rx="4.9230771"
     ry="6.1114058"
     transform="rotate(30.950685)" />
  <ellipse
     style="fill:#6c2fcf;stroke:#213225"
     id="path2"
     cx="98.919823"
     cy="-35.202221"
     rx="4.6684351"
     ry="6.9602122"
     transform="rotate(46.091831)" />
  <path
     style="fill:none;stroke:#213225"
     d="m 56.360743,49.740053 10.355437,0.509284 -2.037135,9.506631 6.960212,-1.867374 -1.867374,7.809019 13.411141,-0.169762 v 0"
     id="path3" />
</svg>
